<svg id="Capa_1" enable-background="new 0 0 512 512" height="512" viewBox="0 0 512 512" width="512" xmlns="http://www.w3.org/2000/svg"><g><g><g><g><path d="m175 512h-160c-8.284 0-15-6.716-15-15 0-52.383 42.617-95 95-95s95 42.617 95 95c0 8.284-6.716 15-15 15z" fill="#ff6c6c"/></g><path d="m175 512c8.284 0 15-6.716 15-15 0-52.383-42.617-95-95-95v110z" fill="#ff405c"/><g><path d="m497 512h-160c-8.284 0-15-6.716-15-15 0-52.383 42.617-95 95-95s95 42.617 95 95c0 8.284-6.716 15-15 15z" fill="#a2e786"/></g><path d="m497 512c8.284 0 15-6.716 15-15 0-52.383-42.617-95-95-95v110z" fill="#00b9a0"/><g><path d="m95 432c-30.327 0-55-24.673-55-55s24.673-55 55-55 55 24.673 55 55-24.673 55-55 55z" fill="#ffdecf"/></g><path d="m95 322v110c30.327 0 55-24.673 55-55s-24.673-55-55-55z" fill="#ffcdbe"/><g><path d="m417 432c-30.327 0-55-24.673-55-55s24.673-55 55-55 55 24.673 55 55-24.673 55-55 55z" fill="#ffdecf"/></g><path d="m417 322v110c30.327 0 55-24.673 55-55s-24.673-55-55-55z" fill="#ffcdbe"/></g></g><g><g><path d="m411 195v-180c0-3.443-1.172-6.605-3.123-9.137h-303.754c-1.951 2.532-3.123 5.694-3.123 9.137v180c0 3.377 1.13 6.483 3.013 8.99h303.974.004c1.885-2.504 3.009-5.613 3.009-8.99z" fill="#ffc178"/></g><path d="m256 5.863v198.127h151.987.004c1.885-2.504 3.009-5.613 3.009-8.99v-180c0-3.443-1.172-6.605-3.123-9.137z" fill="#ff936b"/><g><path d="m116 210h280c4.907 0 9.25-2.367 11.987-6.01l-130.468-97.85h-43.038l-130.468 97.85c2.737 3.643 7.08 6.01 11.987 6.01z" fill="#ffdd54"/></g><path d="m256 106.14v103.86h140c4.907 0 9.25-2.367 11.987-6.01l-130.468-97.85z" fill="#ffc178"/></g><path d="m366.606 284.393c5.858 5.858 5.858 15.355 0 21.213l-40 40c-5.857 5.858-15.355 5.858-21.213 0s-5.858-15.355 0-21.213l14.394-14.393h-127.574l14.393 14.394c5.858 5.858 5.858 15.355 0 21.213-5.857 5.858-15.355 5.858-21.213 0l-40-40c-5.858-5.858-5.858-15.355 0-21.213l40-40c5.857-5.858 15.355-5.858 21.213 0s5.858 15.355 0 21.213l-14.393 14.393h127.574l-14.394-14.394c-5.858-5.858-5.858-15.355 0-21.213 5.857-5.858 15.355-5.858 21.213 0z" fill="#f9f9f9"/><path d="m366.606 284.394-40-40c-5.857-5.858-15.355-5.858-21.213 0s-5.858 15.355 0 21.213l14.394 14.393h-63.787v30h63.787l-14.394 14.394c-5.858 5.858-5.858 15.355 0 21.213 5.857 5.858 15.355 5.858 21.213 0l40-40c5.859-5.859 5.859-15.356 0-21.213z" fill="#e2dff4"/><path d="m270.044 111.889 137.833-106.026c-2.742-3.56-7.036-5.863-11.877-5.863h-280c-4.841 0-9.135 2.303-11.877 5.863l137.834 106.026c2.622 2.017 5.838 3.111 9.146 3.111h9.796c3.307 0 6.523-1.094 9.145-3.111z" fill="#fff48b"/><path d="m260.898 115c3.308 0 6.523-1.094 9.146-3.111l137.833-106.026c-2.742-3.56-7.036-5.863-11.877-5.863h-140v115z" fill="#ffdd54"/></g></svg>